# AST/ASF file generated using VICON BodyLanguage
# -----------------------------------------------
:version 1.10
:name VICON
:units
  mass 1.0
  length 0.45
  angle deg
:documentation
   .ast/.asf automatically generated from VICON data using
   VICON BodyBuilder and BodyLanguage model FoxedUp or BRILLIANT.MOD
:root
   order TX TY TZ RX RY RZ
   axis XYZ
   position 0 0 0  
   orientation 0 0 0 
:bonedata
  begin
     id 1 
     name lhipjoint
     direction 0.570549 -0.739093 0.358072 
     length 2.41801 
     axis 0 0 0  XYZ
  end
  begin
     id 2 
     name lfemur
     direction 0.34202 -0.939693 0  
     length 7.44434  
     axis 0 0 20  XYZ
    dof rx ry rz
    limits (-160.0 20.0)
           (-70.0 70.0)
           (-60.0 70.0)
  end
  begin
     id 3 
     name ltibia
     direction 0.34202 -0.939693 0   
     length 7.60047   
     axis 0 0 20   XYZ
    dof rx
    limits (-10.0 170.0)
  end
  begin
     id 4 
     name lfoot
     direction 0.0909041 -0.249757 0.964032   
     length 2.03437   
     axis -90 7.62852e-016 20   XYZ
    dof rx rz
    limits (-45.0 90.0)
           (-70.0 20.0)
  end
  begin
     id 5 
     name ltoes
     direction 1.53547e-011 -4.2174e-011 1   
     length 1.02054   
     axis -90 7.62852e-016 20   XYZ
    dof rx
    limits (-90.0 20.0)
  end
  begin
     id 6 
     name rhipjoint
     direction -0.558096 -0.746754 0.361784   
     length 2.3932  
     axis 0 0 0  XYZ 
  end
  begin
     id 7 
     name rfemur
     direction -0.34202 -0.939693 0   
     length 7.3886   
     axis 0 0 -20   XYZ
    dof rx ry rz
    limits (-160.0 20.0)
           (-70.0 70.0)
           (-70.0 60.0)
  end
  begin
     id 8 
     name rtibia
     direction -0.34202 -0.939693 0   
     length 7.4839   
     axis 0 0 -20   XYZ
    dof rx
    limits (-10.0 170.0)
 end
 begin
     id 9 
     name rfoot
     direction -0.114619 -0.314914 0.942174   
     length 2.25127  
     axis -90 -7.62852e-016 -20   XYZ
    dof rx rz
    limits (-45.0 90.0)
           (-20.0 70.0)
  end
  begin
     id 10 
     name rtoes
     direction -1.53518e-011 -4.21881e-011 1   
     length 1.11821   
     axis -90 -7.62852e-016 -20   XYZ
    dof rx
    limits (-90.0 20.0)
  end
  begin
     id 11 
     name lowerback
     direction -0.00902269 0.996426 -0.0839821   
     length 2.25052   
     axis 0 0 0   XYZ
    dof rx ry rz
    limits (-20.0 45.0)
           (-30.0 30.0)
           (-30.0 30.0)
  end
  begin
     id 12 
     name upperback
     direction 0.0370973 0.999169 -0.0168941   
     length 2.24876   
     axis 0 0 0   XYZ
    dof rx ry rz
    limits (-20.0 45.0)
           (-30.0 30.0)
           (-30.0 30.0)
  end
  begin
     id 13 
     name thorax
     direction 0.0402726 0.998931 0.0227027   
     length 2.26408   
     axis 0 0 0   XYZ
    dof rx ry rz
    limits (-20.0 45.0)
           (-30.0 30.0)
           (-30.0 30.0)
  end
  begin
     id 14 
     name lowerneck
     direction -0.0733697 0.98508 0.155675   
     length 1.58204   
     axis 0 0 0   XYZ
    dof rx ry rz
    limits (-20.0 45.0)
           (-30.0 30.0)
           (-30.0 30.0)
  end
  begin
     id 15 
     name upperneck
     direction 0.0426554 0.993501 -0.105526   
     length 1.61222   
     axis 0 0 0   XYZ
    dof rx ry rz
    limits (-20.0 45.0)
           (-30.0 30.0)
           (-30.0 30.0)
  end
  begin
     id 16
     name head
     direction 0.020792 0.998384 -0.0528868  
     length 1.61527  
     axis 0 0 0   XYZ
    dof rx ry rz
    limits (-20.0 45.0)
           (-30.0 30.0)
           (-30.0 30.0)
  end
  begin
     id 17 
     name lclavicle
     direction 0.967109 0.155462 -0.201325  
     length 3.59357  
     axis 0 0 0   XYZ
    dof ry rz
    limits (-20.0 10.0)
           (0.0 20.0)
  end
  begin
     id 18 
     name lhumerus
     direction 1 -4.48968e-011 2.38195e-027   
     length 5.38154   
     axis 180 -30 -90   XYZ
    dof rx ry rz
    limits (-60.0 90.0)
           (-90.0 90.0)
           (-90.0 90.0)
  end
  begin
     id 19
     name lradius
     direction 1 -4.48961e-011 4.85371e-027   
     length 3.33312   
     axis 180 -30 -90   XYZ
    dof rx
    limits (-10.0 170.0)
  end
  begin
     id 20
     name lwrist
     direction 1 -4.48961e-011 4.76515e-027   
     length 1.66656   
     axis -3.27502e-015 90 90   XYZ
    dof ry
    limits (-180.0 0.0)
 end
  begin
     id 21 
     name lhand
     direction 1 -4.48951e-011 9.53074e-027   
     length 0.710789   
     axis -6.08098e-015 90 90   XYZ
    dof rx rz
    limits (-90.0 90.0)
           (-45.0 45.0)
  end
  begin
     id 22 
     name lfingers
     direction 1 -4.48953e-011 1.90613e-026   
     length 0.573057   
     axis -1.21619e-014 90 90   XYZ
    dof rx
    limits (0.0 90.0)
  end
  begin
     id 23
     name lthumb
     direction 0.707107 -6.34973e-011 0.707107   
     length 0.822798   
     axis -90 45 -9.86923e-015   XYZ
    dof rx rz
    limits (-45.0 45.0)
           (-45.0 45.0)
  end
  begin
     id 24 
     name rclavicle
     direction -0.9585 0.265289 -0.104398   
     length 3.42039  
     axis 0 0 0   XYZ 
    dof ry rz
    limits (-10.0 20.0)
           (-20.0 0.0)
  end
  begin
     id 25 
     name rhumerus
     direction -1 -4.48977e-011 2.21478e-027  
     length 5.16954   
     axis 180 30 90   XYZ
    dof rx ry rz
    limits (-90.0 60.0)
           (-90.0 90.0)
           (-90.0 90.0)
  end
  begin
     id 26 
     name rradius
     direction -1 -4.48967e-011 5.63677e-027   
     length 3.38287   
     axis 180 30 90   XYZ
    dof rx
    limits (-10.0 170.0)
  end
  begin
     id 27 
     name rwrist
     direction -1 -4.48967e-011 4.76501e-027   
     length 1.69144   
     axis -3.27502e-015 -90 -90   XYZ
    dof ry
    limits (-180.0 0.0)
  end
  begin
     id 28
     name rhand
     direction -1 -4.48902e-011 9.53292e-027   
     length 0.817967   
     axis -6.08098e-015 -90 -90   XYZ
    dof rx rz
    limits (-90.0 90.0)
           (-45.0 45.0)
  end
  begin
     id 29
     name rfingers
     direction -1 -4.49012e-011 1.90561e-026   
     length 0.659466   
     axis -1.21619e-014 -90 -90   XYZ
    dof rx
    limits (0.0 90.0)
  end
  begin
     id 30
     name rthumb
     direction -0.707107 -6.34944e-011 0.707107   
     length 0.946865   
     axis -90 -45 9.86923e-015   XYZ
    dof rx rz
    limits (-45.0 45.0)
           (-45.0 45.0)
  end
:hierarchy
  begin
    root lhipjoint rhipjoint lowerback
    lhipjoint lfemur
    lfemur ltibia
    ltibia lfoot
    lfoot ltoes
    rhipjoint rfemur
    rfemur rtibia
    rtibia rfoot
    rfoot rtoes
    lowerback upperback
    upperback thorax
    thorax lowerneck lclavicle rclavicle
    lowerneck upperneck
    upperneck head
    lclavicle lhumerus
    lhumerus lradius
    lradius lwrist
    lwrist lhand lthumb
    lhand lfingers
    rclavicle rhumerus
    rhumerus rradius
    rradius rwrist
    rwrist rhand rthumb
    rhand rfingers
  end

#!OML:ASF F:\twosubjects\two\wednesday\Session 1\Justin1.ASF
:FULLY-SPECIFIED
:DEGREES
362
root 9.67823 16.2942 -15.5585 0.607883 -20.7442 4.78785
lowerback 18.0361 5.02099 3.49148
upperback 0.879493 7.07882 -2.70243
thorax -8.33192 3.21707 -6.62792
lowerneck -23.4342 -3.1491 -7.90083
upperneck 16.9702 -3.06175 6.33792
head 9.42298 -1.21628 3.05399
rclavicle -6.81831e-014 1.35174e-014
rhumerus 8.24127 -9.10216 -39.5064
rradius 75.6318
rwrist -35.7157
rhand -24.8086 38.8873
rfingers 7.12502
rthumb 1.69643 8.91426
lclavicle -6.81831e-014 1.35174e-014
lhumerus -39.7451 5.07472 81.568
lradius 119.129
lwrist 10.06
lhand -8.55132 21.4394
lfingers 7.12502
lthumb 17.3783 50.6825
rfemur -33.199 3.70919 9.12633
rtibia 54.0879
rfoot -20.8875 3.35199
rtoes -12.8712
lfemur -25.3499 18.8942 -21.0162
ltibia 53.2693
lfoot -26.534 3.91165
ltoes -14.506
363
root 9.63448 16.2497 -15.5665 0.477925 -19.7658 4.2596
lowerback 18.1016 4.74661 3.42219
upperback 1.17585 6.73389 -2.28445
thorax -8.1479 3.07277 -6.04256
lowerneck -23.2504 -3.26209 -8.02291
upperneck 16.299 -3.17001 6.36723
head 9.16787 -1.27102 3.05878
rclavicle -8.67695e-014 7.15625e-015
rhumerus 7.43254 -9.6705 -40.0932
rradius 77.59
rwrist -35.8796
rhand -23.2438 37.2949
rfingers 7.12502
rthumb 3.20767 7.33933
lclavicle -8.67695e-014 7.15625e-015
lhumerus -37.7911 4.44673 80.894
lradius 118.391
lwrist 9.87054
lhand -8.99982 21.5404
lfingers 7.12502
lthumb 16.9466 50.821
rfemur -33.0267 3.23424 9.76066
rtibia 54.9763
rfoot -21.4529 2.92226
rtoes -12.6135
lfemur -25.5985 18.8047 -20.2343
ltibia 54.3508
lfoot -27.113 3.06406
ltoes -13.9892
364
root 9.56195 16.1839 -15.6529 1.19213 -17.3872 3.48262
lowerback 18.0176 4.05586 3.00838
upperback 1.12718 5.8025 -1.56023
thorax -8.38457 2.63984 -4.81235
lowerneck -23.3727 -3.29512 -8.07954
upperneck 16.052 -3.13109 6.16141
head 9.09691 -1.27667 2.99784
rclavicle -3.27995e-014 -5.96354e-015
rhumerus 6.62287 -9.87081 -40.4718
rradius 79.7755
rwrist -35.8653
rhand -22.2272 35.9789
rfingers 7.12502
rthumb 4.18935 6.04038
lclavicle -3.27995e-014 -5.96354e-015
lhumerus -36.0399 4.27528 80.2352
lradius 117.811
lwrist 9.75778
lhand -9.38525 21.7389
lfingers 7.12502
lthumb 16.5756 51.051
rfemur -33.6162 1.72283 10.8703
rtibia 55.8492
rfoot -21.775 2.04487
rtoes -12.2851
lfemur -27.2568 17.933 -19.2497
ltibia 55.4772
lfoot -27.1321 1.25441
ltoes -12.501
365
root 9.50841 16.137 -15.6802 1.28203 -15.7808 2.89278
lowerback 18.0488 3.56207 2.78267
upperback 1.25961 5.15284 -1.01066
thorax -8.39164 2.34652 -3.93631
lowerneck -23.1953 -3.25637 -7.93351
upperneck 15.8704 -3.09129 5.96182
head 8.99438 -1.27309 2.90778
rclavicle 3.926e-014 -1.23246e-014
rhumerus 5.71676 -10.0599 -41.1658
rradius 82.0128
rwrist -35.6059
rhand -22.8792 36.1903
rfingers 7.12502
rthumb 3.55976 6.2403
lclavicle 3.926e-014 -1.23246e-014
lhumerus -34.5048 4.20308 79.1767
lradius 117.39
lwrist 9.81122
lhand -9.4587 21.9252
lfingers 7.12502
lthumb 16.5048 51.2432
rfemur -33.5392 0.633516 11.6692
rtibia 56.5209
rfoot -22.1605 1.37272
rtoes -13.0042
lfemur -27.9638 17.1765 -18.4423
ltibia 56.5103
lfoot -27.2955 0.164946
ltoes -11.0797
366
root 9.44357 16.0871 -15.7108 1.38502 -14.0624 2.09076
lowerback 18.2225 3.05783 2.70211
upperback 1.28736 4.52702 -0.446795
thorax -8.56118 2.05374 -3.14588
lowerneck -22.2968 -3.09648 -7.38328
upperneck 14.961 -3.0134 5.59762
head 8.50796 -1.2517 2.69474
rclavicle 8.54774e-015 -4.77083e-015
rhumerus 4.32863 -10.16 -42.0794
rradius 84.5151
rwrist -35.0434
rhand -23.7795 37.0469
rfingers 7.12502
rthumb 2.69034 7.08411
lclavicle 8.54774e-015 -4.77083e-015
lhumerus -32.6172 4.00729 78.2205
lradius 116.537
lwrist 9.64468
lhand -9.46201 21.9128
lfingers 7.12502
lthumb 16.5017 51.2311
rfemur -33.4178 -0.370438 12.7554
rtibia 57.1543
rfoot -22.488 0.440744
rtoes -13.5743
lfemur -28.7197 16.5411 -17.3543
ltibia 57.5762
lfoot -27.3908 -0.725466
ltoes -11.3458
367
root 9.36059 16.0278 -15.7698 1.63622 -11.8444 1.13526
lowerback 18.5955 2.44491 2.48116
upperback 1.14533 3.75961 0.308003
thorax -9.04223 1.69547 -2.04552
lowerneck -21.5896 -2.94527 -6.87805
upperneck 14.2794 -2.9096 5.17837
head 8.13535 -1.22497 2.47922
rclavicle -1.70955e-014 -1.82882e-014
rhumerus 2.60489 -9.92612 -42.7976
rradius 87.1341
rwrist -34.3628
rhand -23.9888 38
rfingers 7.12502
rthumb 2.48819 8.03473
lclavicle -1.70955e-014 -1.82882e-014
lhumerus -30.816 3.8528 77.3355
lradius 115.597
lwrist 9.59234
lhand -9.51423 21.8939
lfingers 7.12502
lthumb 16.4514 51.2164
rfemur -33.4597 -1.51249 14.081
rtibia 57.754
rfoot -22.7896 -0.596944
rtoes -12.7996
lfemur -29.874 15.8037 -16.0593
ltibia 58.5684
lfoot -27.3915 -2.06712
ltoes -11.3717
368
root 9.28553 15.982 -15.7892 1.93719 -10.2357 -0.0811456
lowerback 18.5073 2.00203 2.53644
upperback 1.09702 3.26368 1.10009
thorax -9.11616 1.47266 -1.09091
lowerneck -21.2651 -2.84606 -6.51115
upperneck 13.9467 -2.83817 4.87151
head 7.95378 -1.20542 2.3237
rclavicle 2.71341e-014 1.90833e-014
rhumerus 0.882483 -9.77921 -43.5826
rradius 89.8905
rwrist -33.8096
rhand -23.8411 39.1142
rfingers 7.12502
rthumb 2.63085 9.15067
lclavicle 2.71341e-014 1.90833e-014
lhumerus -29.0388 3.7266 76.3177
lradius 114.628
lwrist 9.77379
lhand -9.59937 22.1187
lfingers 7.12502
lthumb 16.3694 51.4479
rfemur -33.421 -2.14774 15.661
rtibia 58.2901
rfoot -23.285 -1.64224
rtoes -12.6061
lfemur -30.8234 15.5542 -14.5258
ltibia 59.466
lfoot -27.5786 -3.27248
ltoes -11.5492
369
root 9.20554 15.9401 -15.8057 2.22283 -8.35799 -1.03424
lowerback 18.1916 1.49512 2.42326
upperback 1.17053 2.62761 1.80824
thorax -8.9212 1.19434 -0.0869285
lowerneck -21.6347 -2.73712 -6.02618
upperneck 13.9494 -2.74202 4.50072
head 7.99772 -1.16664 2.13108
rclavicle 8.74653e-015 -3.18055e-015
rhumerus -0.727631 -9.96169 -44.5198
rradius 92.6113
rwrist -33.3289
rhand -22.641 39.6415
rfingers 7.12502
rthumb 3.78977 9.69542
lclavicle 8.74653e-015 -3.18055e-015
lhumerus -26.8125 3.65297 75.4215
lradius 113.416
lwrist 9.99479
lhand -9.78094 22.5677
lfingers 7.12502
lthumb 16.1946 51.9112
rfemur -33.4025 -3.16191 16.9925
rtibia 58.782
rfoot -23.9065 -2.81193
rtoes -14.1601
lfemur -31.8154 14.9692 -13.3373
ltibia 60.2768
lfoot -27.8103 -3.98763
ltoes -13.9413
370
root 9.11805 15.8999 -15.8338 2.42755 -6.34491 -1.73196
lowerback 18.104 0.996713 1.95646
upperback 1.25562 1.94002 2.54142
thorax -8.83262 0.902427 1.1479
lowerneck -24.3931 -2.83349 -5.90401
upperneck 16.2443 -2.77671 4.34854
head 9.24723 -1.16719 2.06031
rclavicle -5.76476e-015 1.35174e-014
rhumerus -2.39127 -9.87908 -45.3912
rradius 95.142
rwrist -32.2595
rhand -21.541 38.4831
rfingers 7.12502
rthumb 4.85194 8.55862
lclavicle -5.76476e-015 1.35174e-014
lhumerus -24.6648 3.7025 74.4067
lradius 112.301
lwrist 10.5231
lhand -10.0073 23.0649
lfingers 7.12502
lthumb 15.9766 52.426
rfemur -33.5208 -4.26253 18.0789
rtibia 59.2075
rfoot -24.3462 -3.90136
rtoes -15.2545
lfemur -32.8718 14.2206 -12.4021
ltibia 61.0073
lfoot -27.9254 -4.81429
ltoes -16.0159
371
root 9.0346 15.864 -15.8616 2.4897 -4.79427 -3.37074
lowerback 18.4334 0.554451 2.33605
upperback 1.29455 1.54065 3.53189
thorax -8.99116 0.717492 2.10893
lowerneck -22.2553 -2.58536 -5.22017
upperneck 13.8835 -2.58604 3.66836
head 8.04656 -1.12806 1.73716
rclavicle 1.98785e-016 -3.26007e-014
rhumerus -4.24409 -9.38957 -46.258
rradius 97.7871
rwrist -31.1655
rhand -23.0173 41.4748
rfingers 7.12502
rthumb 3.42641 11.5226
lclavicle 1.98785e-016 -3.26007e-014
lhumerus -22.9067 3.83625 73.2951
lradius 111.237
lwrist 11.1389
lhand -10.0881 23.1194
lfingers 7.12502
lthumb 15.8988 52.4867
rfemur -33.4466 -4.71792 20.2227
rtibia 59.4584
rfoot -24.4011 -4.96396
rtoes -14.5382
lfemur -33.7837 13.9532 -10.282
ltibia 61.7222
lfoot -27.7117 -6.54108
ltoes -13.7071
372
root 8.94731 15.8205 -15.8918 2.67092 -2.98349 -4.98134
lowerback 18.5577 0.0241789 2.72351
upperback 1.21769 1.02293 4.4597
thorax -9.14843 0.476355 3.04075
lowerneck -21.0894 -2.76789 -5.39698
upperneck 13.1772 -2.86215 3.85368
head 7.635 -1.25982 1.79515
rclavicle 4.96962e-015 4.21423e-014
rhumerus -6.38398 -8.90668 -47.2568
rradius 100.507
rwrist -30.5799
rhand -23.4347 40.9338
rfingers 7.12502
rthumb 3.02326 10.9754
lclavicle 4.96962e-015 4.21423e-014
lhumerus -20.9659 3.94366 72.3848
lradius 109.803
lwrist 11.5969
lhand -10.1279 23.0462
lfingers 7.12502
lthumb 15.8605 52.4166
rfemur -33.584 -5.47771 22.3886
rtibia 59.7313
rfoot -24.5449 -5.91287
rtoes -12.9013
lfemur -34.9317 13.6496 -8.27039
ltibia 62.3663
lfoot -27.575 -7.98588
ltoes -12.2541
373
root 8.87991 15.7986 -15.8923 2.51713 -0.949931 -5.57866
lowerback 18.5063 -0.532823 2.41138
upperback 1.34107 0.274416 5.07351
thorax -8.96434 0.146103 4.08644
lowerneck -21.6268 -2.80475 -5.34659
upperneck 13.4326 -2.90359 3.85283
head 7.81062 -1.27169 1.77924
rclavicle 8.74653e-015 1.11319e-014
rhumerus -8.48626 -8.5086 -48.2805
rradius 103.071
rwrist -30.0282
rhand -22.1795 39.746
rfingers 7.12502
rthumb 4.23545 9.80838
lclavicle 8.74653e-015 1.11319e-014
lhumerus -18.6254 4.09399 71.6417
lradius 108.007
lwrist 12.0962
lhand -10.4308 23.193
lfingers 7.12502
lthumb 15.5687 52.5864
rfemur -33.3065 -6.81323 23.2374
rtibia 60.0095
rfoot -25.1739 -6.61294
rtoes -12.4632
lfemur -35.5586 12.6454 -7.53876
ltibia 62.8168
lfoot -27.7936 -8.53081
ltoes -12.9468
374
root 8.80278 15.7753 -15.9029 2.40859 1.0737 -6.24532
lowerback 18.4935 -0.99714 1.97315
upperback 1.5313 -0.365072 5.85447
thorax -8.7079 -0.128054 5.36197
lowerneck -21.9947 -2.91786 -5.4347
upperneck 13.4178 -2.99656 3.78563
head 7.87121 -1.32345 1.75645
rclavicle -4.77083e-015 1.59028e-014
rhumerus -10.3909 -8.17599 -49.1196
rradius 105.48
rwrist -29.5436
rhand -20.7937 38.8964
rfingers 7.12502
rthumb 5.57353 8.98974
lclavicle -4.77083e-015 1.59028e-014
lhumerus -16.3566 4.35617 71.0591
lradius 106.15
lwrist 12.615
lhand -10.8347 23.0466
lfingers 7.12502
lthumb 15.1797 52.4698
rfemur -33.1945 -8.08745 24.2763
rtibia 60.3525
rfoot -25.7785 -7.64239
rtoes -12.9322
lfemur -36.4205 11.6008 -6.64918
ltibia 63.2309
lfoot -27.6316 -9.5775
ltoes -12.0896
375
root 8.71082 15.7379 -15.9212 2.32351 2.97445 -7.11981
lowerback 18.6938 -1.38319 1.50588
upperback 1.61283 -0.880095 6.73994
thorax -8.66996 -0.338599 6.76354
lowerneck -22.7024 -3.02735 -5.95056
upperneck 13.9328 -3.04222 4.237
head 8.18067 -1.31936 1.98419
rclavicle -4.57205e-014 2.94201e-014
rhumerus -12.5132 -7.77635 -50.0406
rradius 107.859
rwrist -28.8969
rhand -19.7476 38.5577
rfingers 7.12502
rthumb 6.58351 8.68008
lclavicle -4.57205e-014 2.94201e-014
lhumerus -14.3684 4.66115 70.5761
lradius 104.202
lwrist 12.9629
lhand -11.2812 22.5047
lfingers 7.12502
lthumb 14.7496 51.9599
rfemur -33.318 -9.14741 25.6498
rtibia 60.6887
rfoot -26.1753 -8.7037
rtoes -11.942
lfemur -37.3497 10.8529 -5.51129
ltibia 63.5967
lfoot -27.4 -10.3939
ltoes -12.7348
376
root 8.6197 15.7054 -15.9381 2.27796 4.90343 -8.03632
lowerback 18.9338 -1.80881 1.21984
upperback 1.60466 -1.41519 7.48605
thorax -8.73101 -0.565841 7.93214
lowerneck -23.4308 -3.12983 -6.71418
upperneck 14.5409 -3.09834 5.2022
head 8.5424 -1.27737 2.43123
rclavicle 3.45885e-014 -1.35174e-014
rhumerus -14.9514 -7.33683 -51.1955
rradius 110.278
rwrist -28.4396
rhand -20.5833 40.0441
rfingers 7.12502
rthumb 5.77664 10.1428
lclavicle 3.45885e-014 -1.35174e-014
lhumerus -12.0882 4.85136 70.1133
lradius 101.966
lwrist 13.0887
lhand -11.6049 22.2585
lfingers 7.12502
lthumb 14.4377 51.7363
rfemur -33.5686 -10.1064 27.0492
rtibia 60.9391
rfoot -26.5566 -9.65555
rtoes -10.5153
lfemur -38.3635 10.1506 -4.39316
ltibia 63.9383
lfoot -27.2854 -10.9524
ltoes -14.8274
